<?xml version="1.0" standalone="no"?><!-- Generator: Gravit.io --><svg xmlns="http://www.w3.org/2000/svg" xmlns:xlink="http://www.w3.org/1999/xlink" style="isolation:isolate" viewBox="0 0 560 315" width="560" height="315"><defs><clipPath id="_clipPath_swKB7e8d1K66aZvpVwdvsmynQfZtZfzI"><rect width="560" height="315"/></clipPath></defs><g clip-path="url(#_clipPath_swKB7e8d1K66aZvpVwdvsmynQfZtZfzI)"><g id="Group"><path d="M 39 116.823 L 501 116.823 L 501 173.177 C 501 186.975 489.798 198.177 476 198.177 L 64 198.177 C 50.202 198.177 39 186.975 39 173.177 L 39 116.823 Z" style="stroke:none;fill:#00FF85;stroke-miterlimit:10;"/><path d="M 39 116.823 L 501 116.823 L 501 173.177 C 501 186.975 489.798 198.177 476 198.177 L 64 198.177 C 50.202 198.177 39 186.975 39 173.177 L 39 116.823 Z" style="fill:none;stroke:#00FF85;stroke-width:1;stroke-linecap:square;stroke-miterlimit:3;"/><path d="M 338 116.823 L 501 116.823 L 501 173.177 C 501 186.975 489.798 198.177 476 198.177 L 363 198.177 C 349.202 198.177 338 186.975 338 173.177 L 338 116.823 Z" style="stroke:none;fill:#00FF85;stroke-linecap:square;stroke-miterlimit:3;"/><path d="M 338 116.823 L 501 116.823 L 501 173.177 C 501 186.975 489.798 198.177 476 198.177 L 363 198.177 C 349.202 198.177 338 186.975 338 173.177 L 338 116.823 Z" style="fill:none;stroke:#00FF85;stroke-width:1;stroke-linecap:square;stroke-miterlimit:3;"/><path d="M 39 116.823 L 338 116.823 L 338 173.177 C 338 186.975 326.798 198.177 313 198.177 L 64 198.177 C 50.202 198.177 39 186.975 39 173.177 L 39 116.823 Z" style="stroke:none;fill:#FFFFFF;stroke-linecap:square;stroke-miterlimit:3;"/><path d="M 39 116.823 L 338 116.823 L 338 173.177 C 338 186.975 326.798 198.177 313 198.177 L 64 198.177 C 50.202 198.177 39 186.975 39 173.177 L 39 116.823 Z" style="fill:none;stroke:#00FF85;stroke-width:1;stroke-linecap:square;stroke-miterlimit:3;"/><path d=" M 353.138 182.963 L 353.138 131.813 L 359.513 131.813 L 359.513 176.963 L 382.729 176.963 L 382.729 182.963 L 353.138 182.963 L 353.138 182.963 Z  M 390.563 182.963 L 390.563 131.813 L 396.938 131.813 L 396.938 182.963 L 390.563 182.963 L 390.563 182.963 Z  M 421.838 182.963 L 404.813 131.813 L 411.188 131.813 L 425.888 176.963 L 425.963 176.963 L 440.438 131.813 L 446.813 131.813 L 429.788 182.963 L 421.838 182.963 L 421.838 182.963 Z  M 454.763 182.963 L 454.763 131.813 L 486.154 131.813 L 486.154 137.588 L 461.138 137.588 L 461.138 153.938 L 484.388 153.938 L 484.388 159.563 L 461.138 159.563 L 461.138 177.188 L 486.904 177.188 L 486.904 182.963 L 454.763 182.963 L 454.763 182.963 Z " fill-rule="evenodd" fill="rgb(255,255,255)"/><path d=" M 81.975 142.02 L 79.545 148.86 L 79.545 148.86 Q 76.935 147.6 74.685 147.015 L 74.685 147.015 L 74.685 147.015 Q 72.435 146.43 69.645 146.43 L 69.645 146.43 L 69.645 146.43 Q 66.495 146.43 63.75 147.6 L 63.75 147.6 L 63.75 147.6 Q 61.005 148.77 59.025 150.975 L 59.025 150.975 L 59.025 150.975 Q 57.045 153.18 55.92 156.33 L 55.92 156.33 L 55.92 156.33 Q 54.795 159.48 54.795 163.53 L 54.795 163.53 L 54.795 163.53 Q 54.795 167.22 55.83 170.37 L 55.83 170.37 L 55.83 170.37 Q 56.865 173.52 58.755 175.905 L 58.755 175.905 L 58.755 175.905 Q 60.645 178.29 63.255 179.64 L 63.255 179.64 L 63.255 179.64 Q 65.865 180.99 69.105 180.99 L 69.105 180.99 L 69.105 180.99 Q 72.525 180.99 74.955 180.27 L 74.955 180.27 L 74.955 180.27 Q 77.385 179.55 80.175 178.02 L 80.175 178.02 L 82.695 184.86 L 82.695 184.86 Q 79.815 186.39 76.395 187.29 L 76.395 187.29 L 76.395 187.29 Q 72.975 188.19 68.565 188.19 L 68.565 188.19 L 68.565 188.19 Q 63.525 188.19 59.475 186.39 L 59.475 186.39 L 59.475 186.39 Q 55.425 184.59 52.545 181.35 L 52.545 181.35 L 52.545 181.35 Q 49.665 178.11 48.09 173.61 L 48.09 173.61 L 48.09 173.61 Q 46.515 169.11 46.515 163.71 L 46.515 163.71 L 46.515 163.71 Q 46.515 158.67 48.09 154.215 L 48.09 154.215 L 48.09 154.215 Q 49.665 149.76 52.635 146.43 L 52.635 146.43 L 52.635 146.43 Q 55.605 143.1 59.79 141.165 L 59.79 141.165 L 59.79 141.165 Q 63.975 139.23 69.195 139.23 L 69.195 139.23 L 69.195 139.23 Q 73.245 139.23 76.215 139.95 L 76.215 139.95 L 76.215 139.95 Q 79.185 140.67 81.975 142.02 L 81.975 142.02 L 81.975 142.02 Z  M 99.795 120.51 L 99.795 171.63 L 99.795 171.63 Q 99.795 176.49 101.82 178.83 L 101.82 178.83 L 101.82 178.83 Q 103.845 181.17 107.445 181.17 L 107.445 181.17 L 107.445 181.17 Q 109.155 181.17 110.775 180.765 L 110.775 180.765 L 110.775 180.765 Q 112.395 180.36 113.655 179.82 L 113.655 179.82 L 115.635 186.39 L 115.635 186.39 Q 114.015 187.11 111.63 187.65 L 111.63 187.65 L 111.63 187.65 Q 109.245 188.19 106.365 188.19 L 106.365 188.19 L 106.365 188.19 Q 103.215 188.19 100.56 187.29 L 100.56 187.29 L 100.56 187.29 Q 97.905 186.39 95.925 184.5 L 95.925 184.5 L 95.925 184.5 Q 93.945 182.61 92.82 179.64 L 92.82 179.64 L 92.82 179.64 Q 91.695 176.67 91.695 172.44 L 91.695 172.44 L 91.695 120.51 L 99.795 120.51 L 99.795 120.51 Z  M 120.135 163.98 L 120.135 163.98 L 120.135 163.98 Q 120.135 158.76 121.755 154.215 L 121.755 154.215 L 121.755 154.215 Q 123.375 149.67 126.3 146.34 L 126.3 146.34 L 126.3 146.34 Q 129.225 143.01 133.32 141.12 L 133.32 141.12 L 133.32 141.12 Q 137.415 139.23 142.275 139.23 L 142.275 139.23 L 142.275 139.23 Q 146.325 139.23 149.61 140.625 L 149.61 140.625 L 149.61 140.625 Q 152.895 142.02 155.325 144.09 L 155.325 144.09 L 155.325 140.31 L 162.705 140.31 L 162.705 175.77 L 162.705 175.77 Q 162.705 179.19 164.37 180.225 L 164.37 180.225 L 164.37 180.225 Q 166.035 181.26 168.015 181.26 L 168.015 181.26 L 166.305 187.56 L 166.305 187.56 Q 157.665 187.56 155.865 180.54 L 155.865 180.54 L 155.865 180.54 Q 154.785 181.98 153.39 183.375 L 153.39 183.375 L 153.39 183.375 Q 151.995 184.77 150.195 185.85 L 150.195 185.85 L 150.195 185.85 Q 148.395 186.93 146.145 187.56 L 146.145 187.56 L 146.145 187.56 Q 143.895 188.19 141.195 188.19 L 141.195 188.19 L 141.195 188.19 Q 136.785 188.19 132.96 186.48 L 132.96 186.48 L 132.96 186.48 Q 129.135 184.77 126.3 181.62 L 126.3 181.62 L 126.3 181.62 Q 123.465 178.47 121.8 174.015 L 121.8 174.015 L 121.8 174.015 Q 120.135 169.56 120.135 163.98 Z  M 142.995 180.99 L 142.995 180.99 L 142.995 180.99 Q 146.415 180.99 149.475 179.37 L 149.475 179.37 L 149.475 179.37 Q 152.535 177.75 154.605 175.14 L 154.605 175.14 L 154.605 150.03 L 154.605 150.03 Q 152.175 148.32 149.25 147.285 L 149.25 147.285 L 149.25 147.285 Q 146.325 146.25 143.085 146.25 L 143.085 146.25 L 143.085 146.25 Q 139.845 146.25 137.145 147.51 L 137.145 147.51 L 137.145 147.51 Q 134.445 148.77 132.51 151.065 L 132.51 151.065 L 132.51 151.065 Q 130.575 153.36 129.495 156.6 L 129.495 156.6 L 129.495 156.6 Q 128.415 159.84 128.415 163.71 L 128.415 163.71 L 128.415 163.71 Q 128.415 167.49 129.495 170.685 L 129.495 170.685 L 129.495 170.685 Q 130.575 173.88 132.555 176.175 L 132.555 176.175 L 132.555 176.175 Q 134.535 178.47 137.19 179.73 L 137.19 179.73 L 137.19 179.73 Q 139.845 180.99 142.995 180.99 Z  M 174.765 183.33 L 178.185 176.58 L 178.185 176.58 Q 180.525 178.65 184.08 179.91 L 184.08 179.91 L 184.08 179.91 Q 187.635 181.17 191.685 181.17 L 191.685 181.17 L 191.685 181.17 Q 196.725 181.17 199.29 179.505 L 199.29 179.505 L 199.29 179.505 Q 201.855 177.84 201.855 175.23 L 201.855 175.23 L 201.855 175.23 Q 201.855 173.88 201.36 172.71 L 201.36 172.71 L 201.36 172.71 Q 200.865 171.54 199.56 170.46 L 199.56 170.46 L 199.56 170.46 Q 198.255 169.38 196.005 168.345 L 196.005 168.345 L 196.005 168.345 Q 193.755 167.31 190.155 166.05 L 190.155 166.05 L 190.155 166.05 Q 183.495 163.8 180.255 160.695 L 180.255 160.695 L 180.255 160.695 Q 177.015 157.59 177.015 152.1 L 177.015 152.1 L 177.015 152.1 Q 177.015 149.4 178.23 147.06 L 178.23 147.06 L 178.23 147.06 Q 179.445 144.72 181.74 142.965 L 181.74 142.965 L 181.74 142.965 Q 184.035 141.21 187.32 140.22 L 187.32 140.22 L 187.32 140.22 Q 190.605 139.23 194.835 139.23 L 194.835 139.23 L 194.835 139.23 Q 199.425 139.23 202.89 140.175 L 202.89 140.175 L 202.89 140.175 Q 206.355 141.12 209.145 142.56 L 209.145 142.56 L 206.895 149.22 L 206.895 149.22 Q 204.465 147.78 201.36 146.88 L 201.36 146.88 L 201.36 146.88 Q 198.255 145.98 194.475 145.98 L 194.475 145.98 L 194.475 145.98 Q 189.795 145.98 187.365 147.87 L 187.365 147.87 L 187.365 147.87 Q 184.935 149.76 184.935 152.01 L 184.935 152.01 L 184.935 152.01 Q 184.935 153.09 185.34 153.99 L 185.34 153.99 L 185.34 153.99 Q 185.745 154.89 186.825 155.7 L 186.825 155.7 L 186.825 155.7 Q 187.905 156.51 189.705 157.32 L 189.705 157.32 L 189.705 157.32 Q 191.505 158.13 194.205 159.03 L 194.205 159.03 L 194.205 159.03 Q 198.615 160.56 201.675 162.135 L 201.675 162.135 L 201.675 162.135 Q 204.735 163.71 206.625 165.6 L 206.625 165.6 L 206.625 165.6 Q 208.515 167.49 209.325 169.695 L 209.325 169.695 L 209.325 169.695 Q 210.135 171.9 210.135 174.6 L 210.135 174.6 L 210.135 174.6 Q 210.135 177.75 208.785 180.27 L 208.785 180.27 L 208.785 180.27 Q 207.435 182.79 205.005 184.545 L 205.005 184.545 L 205.005 184.545 Q 202.575 186.3 199.11 187.245 L 199.11 187.245 L 199.11 187.245 Q 195.645 188.19 191.415 188.19 L 191.415 188.19 L 191.415 188.19 Q 186.015 188.19 181.785 186.84 L 181.785 186.84 L 181.785 186.84 Q 177.555 185.49 174.765 183.33 L 174.765 183.33 L 174.765 183.33 Z  M 229.035 140.31 L 229.035 187.11 L 220.935 187.11 L 220.935 140.31 L 229.035 140.31 L 229.035 140.31 Z  M 224.985 132.3 L 224.985 132.3 L 224.985 132.3 Q 222.645 132.3 220.98 130.635 L 220.98 130.635 L 220.98 130.635 Q 219.315 128.97 219.315 126.63 L 219.315 126.63 L 219.315 126.63 Q 219.315 124.02 220.845 122.49 L 220.845 122.49 L 220.845 122.49 Q 222.375 120.96 224.985 120.96 L 224.985 120.96 L 224.985 120.96 Q 227.325 120.96 228.99 122.625 L 228.99 122.625 L 228.99 122.625 Q 230.655 124.29 230.655 126.63 L 230.655 126.63 L 230.655 126.63 Q 230.655 129.24 229.125 130.77 L 229.125 130.77 L 229.125 130.77 Q 227.595 132.3 224.985 132.3 Z  M 275.745 142.02 L 273.315 148.86 L 273.315 148.86 Q 270.705 147.6 268.455 147.015 L 268.455 147.015 L 268.455 147.015 Q 266.205 146.43 263.415 146.43 L 263.415 146.43 L 263.415 146.43 Q 260.265 146.43 257.52 147.6 L 257.52 147.6 L 257.52 147.6 Q 254.775 148.77 252.795 150.975 L 252.795 150.975 L 252.795 150.975 Q 250.815 153.18 249.69 156.33 L 249.69 156.33 L 249.69 156.33 Q 248.565 159.48 248.565 163.53 L 248.565 163.53 L 248.565 163.53 Q 248.565 167.22 249.6 170.37 L 249.6 170.37 L 249.6 170.37 Q 250.635 173.52 252.525 175.905 L 252.525 175.905 L 252.525 175.905 Q 254.415 178.29 257.025 179.64 L 257.025 179.64 L 257.025 179.64 Q 259.635 180.99 262.875 180.99 L 262.875 180.99 L 262.875 180.99 Q 266.295 180.99 268.725 180.27 L 268.725 180.27 L 268.725 180.27 Q 271.155 179.55 273.945 178.02 L 273.945 178.02 L 276.465 184.86 L 276.465 184.86 Q 273.585 186.39 270.165 187.29 L 270.165 187.29 L 270.165 187.29 Q 266.745 188.19 262.335 188.19 L 262.335 188.19 L 262.335 188.19 Q 257.295 188.19 253.245 186.39 L 253.245 186.39 L 253.245 186.39 Q 249.195 184.59 246.315 181.35 L 246.315 181.35 L 246.315 181.35 Q 243.435 178.11 241.86 173.61 L 241.86 173.61 L 241.86 173.61 Q 240.285 169.11 240.285 163.71 L 240.285 163.71 L 240.285 163.71 Q 240.285 158.67 241.86 154.215 L 241.86 154.215 L 241.86 154.215 Q 243.435 149.76 246.405 146.43 L 246.405 146.43 L 246.405 146.43 Q 249.375 143.1 253.56 141.165 L 253.56 141.165 L 253.56 141.165 Q 257.745 139.23 262.965 139.23 L 262.965 139.23 L 262.965 139.23 Q 267.015 139.23 269.985 139.95 L 269.985 139.95 L 269.985 139.95 Q 272.955 140.67 275.745 142.02 L 275.745 142.02 L 275.745 142.02 Z  M 320.655 163.71 L 320.655 163.71 L 320.655 163.71 Q 320.655 160.2 319.53 157.05 L 319.53 157.05 L 319.53 157.05 Q 318.405 153.9 316.38 151.56 L 316.38 151.56 L 316.38 151.56 Q 314.355 149.22 311.61 147.825 L 311.61 147.825 L 311.61 147.825 Q 308.865 146.43 305.625 146.43 L 305.625 146.43 L 305.625 146.43 Q 298.515 146.43 294.555 151.11 L 294.555 151.11 L 294.555 151.11 Q 290.595 155.79 290.595 163.53 L 290.595 163.53 L 290.595 163.53 Q 290.595 167.04 291.72 170.235 L 291.72 170.235 L 291.72 170.235 Q 292.845 173.43 294.87 175.815 L 294.87 175.815 L 294.87 175.815 Q 296.895 178.2 299.64 179.595 L 299.64 179.595 L 299.64 179.595 Q 302.385 180.99 305.625 180.99 L 305.625 180.99 L 305.625 180.99 Q 309.135 180.99 311.925 179.73 L 311.925 179.73 L 311.925 179.73 Q 314.715 178.47 316.65 176.175 L 316.65 176.175 L 316.65 176.175 Q 318.585 173.88 319.62 170.73 L 319.62 170.73 L 319.62 170.73 Q 320.655 167.58 320.655 163.71 Z  M 282.315 163.71 L 282.315 163.71 L 282.315 163.71 Q 282.315 158.04 284.115 153.495 L 284.115 153.495 L 284.115 153.495 Q 285.915 148.95 289.02 145.8 L 289.02 145.8 L 289.02 145.8 Q 292.125 142.65 296.4 140.94 L 296.4 140.94 L 296.4 140.94 Q 300.675 139.23 305.625 139.23 L 305.625 139.23 L 305.625 139.23 Q 310.485 139.23 314.76 140.94 L 314.76 140.94 L 314.76 140.94 Q 319.035 142.65 322.185 145.8 L 322.185 145.8 L 322.185 145.8 Q 325.335 148.95 327.135 153.45 L 327.135 153.45 L 327.135 153.45 Q 328.935 157.95 328.935 163.53 L 328.935 163.53 L 328.935 163.53 Q 328.935 169.11 327.18 173.655 L 327.18 173.655 L 327.18 173.655 Q 325.425 178.2 322.275 181.44 L 322.275 181.44 L 322.275 181.44 Q 319.125 184.68 314.85 186.435 L 314.85 186.435 L 314.85 186.435 Q 310.575 188.19 305.625 188.19 L 305.625 188.19 L 305.625 188.19 Q 300.585 188.19 296.31 186.39 L 296.31 186.39 L 296.31 186.39 Q 292.035 184.59 288.93 181.35 L 288.93 181.35 L 288.93 181.35 Q 285.825 178.11 284.07 173.61 L 284.07 173.61 L 284.07 173.61 Q 282.315 169.11 282.315 163.71 Z " fill-rule="evenodd" fill="rgb(0,255,133)"/></g></g></svg>